<svg width="47" height="46" viewBox="0 0 47 46" fill="none" xmlns="http://www.w3.org/2000/svg">
<path d="M2.9165 44.6274L0.499023 42.34L36.1284 8.68164L38.5459 10.9654L2.9165 44.6274Z" fill="url(#paint0_linear_2397_4112)"/>
<path d="M37.7699 9.42061C36.8911 8.5905 36.1335 8.68274 36.1335 8.68274L29.8379 14.63C30.2089 14.5526 30.8611 14.8514 31.443 15.3974C32.021 15.9435 32.3374 16.5596 32.2554 16.9138L38.5509 10.9665C38.547 10.9665 38.6486 10.2544 37.7699 9.42061Z" fill="url(#paint1_linear_2397_4112)"/>
<path d="M8.50228 37.0691C7.62355 36.2389 6.86589 36.3312 6.86589 36.3312L0.550781 42.2932C0.921799 42.2158 1.59354 42.4998 2.17545 43.0459C2.75345 43.5919 3.05417 44.2302 2.97216 44.5807L9.28337 38.6149C9.28337 38.6149 9.381 37.8992 8.50228 37.0691Z" fill="url(#paint2_linear_2397_4112)"/>
<path d="M2.95485 44.5936C3.25073 44.3141 2.94905 43.576 2.28103 42.9449C1.61301 42.3138 0.83162 42.0288 0.535739 42.3084C0.239859 42.5879 0.541536 43.326 1.20956 43.9571C1.87757 44.5882 2.65897 44.8731 2.95485 44.5936Z" fill="#9E9E9E"/>
<path opacity="0.85" d="M36.1216 8.68904L9.58802 33.7585C9.29121 34.0389 9.59193 34.7767 10.2598 35.4039C10.9276 36.0348 11.7087 36.3189 12.0016 36.0385L38.5391 10.9691C38.5391 10.9691 38.7031 10.2755 37.7658 9.41585C36.8285 8.55622 36.1216 8.68904 36.1216 8.68904Z" fill="url(#paint3_linear_2397_4112)"/>
<path opacity="0.22" d="M27.0484 17.2623L0.51478 42.3317C0.217965 42.6121 0.518685 43.35 1.18652 43.9772C1.85435 44.6081 2.63544 44.8922 2.92835 44.6118L29.4698 19.546C29.4698 19.546 29.6338 18.8524 28.6965 17.9928C27.7553 17.1369 27.0484 17.2623 27.0484 17.2623Z" fill="url(#paint4_linear_2397_4112)"/>
<path d="M25.4017 5.86402L27.7372 3.66514C27.866 3.54339 28.0887 3.643 28.0691 3.81641L27.7684 6.39529C27.7567 6.4949 27.8309 6.58714 27.9403 6.59821L31.2833 6.97452C31.4786 6.99666 31.5215 7.24754 31.338 7.32502L27.8543 8.79708C27.8036 8.81922 27.7645 8.86349 27.7489 8.91514L26.7413 12.1803C26.6944 12.3389 26.4679 12.361 26.3859 12.2172L24.8276 9.54234C24.7925 9.47962 24.7183 9.44273 24.6401 9.44642L21.6486 9.67516C21.465 9.68992 21.3674 9.47962 21.4963 9.36156L23.4802 7.53531C23.5388 7.48366 23.5544 7.3988 23.5232 7.32871L22.4726 5.05973C22.4023 4.90478 22.5703 4.74613 22.7343 4.81992L25.1908 5.9046C25.2572 5.93412 25.3431 5.91936 25.4017 5.86402Z" fill="url(#paint5_radial_2397_4112)"/>
<path d="M33.8835 22.2599L35.7347 23.0678C35.7816 23.09 35.8363 23.0826 35.8753 23.0531L37.7304 21.7286C37.828 21.6585 37.9608 21.7323 37.953 21.843L37.7773 24.0197C37.7734 24.0677 37.7968 24.1156 37.8437 24.1415L39.6128 25.1745C39.7183 25.2372 39.6909 25.3922 39.566 25.4143L37.3477 25.846C37.293 25.857 37.25 25.8939 37.2383 25.9456L36.7658 27.9194C36.7384 28.0374 36.5705 28.0596 36.508 27.9526L35.5238 26.2518C35.5004 26.2075 35.4496 26.1817 35.3988 26.1817L33.0712 26.2518C32.9501 26.2555 32.8837 26.1227 32.9579 26.0341L34.4576 24.3407C34.4928 24.3038 34.5006 24.2521 34.4811 24.2042L33.6922 22.4259C33.6492 22.3189 33.7703 22.2082 33.8835 22.2599Z" fill="url(#paint6_radial_2397_4112)"/>
<path d="M41.5217 3.21821L44.814 1.83838C44.9781 1.76828 45.1226 1.92324 45.0366 2.07081L43.4081 4.90426C43.369 4.97067 43.3768 5.05184 43.4276 5.10349L46.9542 8.3354C47.0597 8.4387 46.9698 8.62317 46.8097 8.63055L42.4825 7.91112C42.4161 7.91481 42.3536 7.9517 42.3184 8.01073L40.0416 11.9473C39.9556 12.0912 39.7369 12.0764 39.7018 11.9252L39.2566 8.0919C39.2409 8.02549 39.1785 7.97753 39.1043 7.97015L35.5308 7.42043C35.3785 7.40936 35.3199 7.23596 35.437 7.12897L38.4247 4.9596C38.4677 4.91902 38.4911 4.86368 38.4833 4.80834L37.9482 0.536024C37.9326 0.373691 38.1474 0.266699 38.2685 0.37738L41.3226 3.1887C41.3733 3.23297 41.4514 3.24404 41.5217 3.21821Z" fill="url(#paint7_radial_2397_4112)"/>
<path d="M36.3048 8.83369C34.8442 9.18787 33.364 9.49409 31.8526 9.61215C30.3412 9.74128 28.8064 9.63798 27.3145 9.38341C25.8226 9.12146 24.3581 8.7931 22.8818 8.53485C21.4056 8.27659 19.9215 8.06998 18.4296 7.90765C17.6837 7.82648 16.9338 7.76745 16.1879 7.69736C15.4576 7.63095 14.735 7.64939 14.0477 7.80066C13.372 7.96299 12.7433 8.26921 12.3371 8.77097C11.927 9.26535 11.7318 9.9073 11.7318 10.5677C11.7239 11.8996 12.2902 13.2278 13.0088 14.4268C13.7313 15.6332 14.6804 16.729 15.6294 17.8247C17.5196 20.0236 19.5622 22.1155 21.5891 24.2221C22.6045 25.2773 23.6199 26.3288 24.6197 27.3987C25.6273 28.4612 26.5998 29.557 27.5293 30.686C28.4627 31.8112 29.3492 32.9881 30.0717 34.2647C30.2514 34.5746 30.4506 34.9177 30.5092 35.3309C30.5287 35.5412 30.5053 35.7736 30.3803 35.9802C30.2553 36.1868 30.0483 36.316 29.8491 36.4008C29.4391 36.5558 29.0329 36.5668 28.6424 36.5484C28.2518 36.5263 27.8691 36.4672 27.4942 36.3861C26.0023 36.043 24.608 35.4563 23.2645 34.7959C22.5928 34.4639 21.9367 34.1097 21.2923 33.7371C20.6518 33.3608 20.023 32.9623 19.406 32.5565C20.687 33.3091 21.9992 34.0101 23.3544 34.6188C24.7096 35.2239 26.1194 35.7515 27.5684 36.0282C27.9316 36.0909 28.2948 36.1426 28.6541 36.1536C29.0134 36.1647 29.3766 36.1352 29.6656 36.0171C29.8062 35.9544 29.9233 35.8732 29.9819 35.7626C30.0405 35.6556 30.0561 35.5191 30.0405 35.3752C29.9936 35.08 29.8257 34.7849 29.6343 34.4786C28.904 33.2611 28.0097 32.1248 27.0567 31.0328C23.245 26.6645 18.9022 22.6947 15.028 18.2896C14.0789 17.1791 13.1182 16.0501 12.3644 14.7699C11.6224 13.5008 11.0092 12.0914 11.0288 10.5529C11.0366 9.79293 11.2709 8.99233 11.8021 8.36514C12.3293 7.72687 13.1182 7.35793 13.8954 7.18084C14.6804 7.01851 15.4849 7.00006 16.2543 7.08492C17.0041 7.17346 17.7579 7.24725 18.5077 7.34686C20.0074 7.54609 21.4993 7.78959 22.9794 8.08105C24.4596 8.3762 25.9242 8.73038 27.3887 9.02923C28.8493 9.33176 30.3412 9.4904 31.8409 9.41661C33.3367 9.3502 34.8247 9.11039 36.3048 8.83369Z" fill="#F35916"/>
<path d="M25.1702 12.069C20.7766 13.0357 15.7347 10.2243 11.0794 10.7187C9.30238 10.9401 8.57206 12.9471 10.2787 16.1274C13.6296 21.5766 18.5192 24.7938 20.3236 26.7897C17.8983 25.5058 12.9149 22.1226 9.45078 18.9387C4.23701 14.2163 5.20165 8.31324 10.0366 8.33169C11.6574 8.18411 14.7934 8.92199 16.1057 9.37578C17.3984 9.86647 21.7998 11.678 25.1702 12.069Z" fill="url(#paint8_radial_2397_4112)"/>
<defs>
<linearGradient id="paint0_linear_2397_4112" x1="18.3124" y1="25.5119" x2="20.5934" y2="27.9265" gradientUnits="userSpaceOnUse">
<stop offset="0.5947" stop-color="#616161"/>
<stop offset="0.7746" stop-color="#565656"/>
<stop offset="1" stop-color="#424242"/>
</linearGradient>
<linearGradient id="paint1_linear_2397_4112" x1="33.4113" y1="11.6557" x2="35.9108" y2="14.3015" gradientUnits="userSpaceOnUse">
<stop offset="0.2622" stop-color="#F5F5F5"/>
<stop offset="0.4658" stop-color="#EAEAEA"/>
<stop offset="0.8221" stop-color="#CDCDCD"/>
<stop offset="0.9891" stop-color="#BDBDBD"/>
</linearGradient>
<linearGradient id="paint2_linear_2397_4112" x1="4.13341" y1="39.3107" x2="6.63869" y2="41.9627" gradientUnits="userSpaceOnUse">
<stop offset="0.2622" stop-color="#F5F5F5"/>
<stop offset="0.4658" stop-color="#EAEAEA"/>
<stop offset="0.8221" stop-color="#CDCDCD"/>
<stop offset="0.9891" stop-color="#BDBDBD"/>
</linearGradient>
<linearGradient id="paint3_linear_2397_4112" x1="25.4075" y1="21.0953" x2="38.1515" y2="7.60494" gradientUnits="userSpaceOnUse">
<stop stop-color="#FADA80" stop-opacity="0"/>
<stop offset="1" stop-color="#FADA80"/>
</linearGradient>
<linearGradient id="paint4_linear_2397_4112" x1="-2.2814" y1="47.2544" x2="6.538" y2="37.9185" gradientUnits="userSpaceOnUse">
<stop stop-color="#1A237E"/>
<stop offset="0.186" stop-color="#1D2A87" stop-opacity="0.814"/>
<stop offset="0.4903" stop-color="#243DA0" stop-opacity="0.5097"/>
<stop offset="0.873" stop-color="#2F5CC7" stop-opacity="0.127"/>
<stop offset="1" stop-color="#3367D6" stop-opacity="0"/>
</linearGradient>
<radialGradient id="paint5_radial_2397_4112" cx="0" cy="0" r="1" gradientUnits="userSpaceOnUse" gradientTransform="translate(28.3492 7.43388) rotate(2.05735) scale(5.77354 5.45498)">
<stop stop-color="#FFBE3B"/>
<stop offset="1" stop-color="#F35916"/>
</radialGradient>
<radialGradient id="paint6_radial_2397_4112" cx="0" cy="0" r="1" gradientUnits="userSpaceOnUse" gradientTransform="translate(37.0786 22.7284) rotate(-19.0602) scale(4.6115 4.41239)">
<stop stop-color="#FFDB3B"/>
<stop offset="1" stop-color="#F35916"/>
</radialGradient>
<radialGradient id="paint7_radial_2397_4112" cx="0" cy="0" r="1" gradientUnits="userSpaceOnUse" gradientTransform="translate(40.8878 5.94372) rotate(105.532) scale(5.93631 6.74056)">
<stop offset="0.3247" stop-color="#FFA73B"/>
<stop offset="1" stop-color="#F35916"/>
</radialGradient>
<radialGradient id="paint8_radial_2397_4112" cx="0" cy="0" r="1" gradientUnits="userSpaceOnUse" gradientTransform="translate(34.9269 24.7783) rotate(29.285) scale(36.0894 21.0211)">
<stop stop-color="#FF9B58" stop-opacity="0"/>
<stop offset="1" stop-color="#F35916"/>
</radialGradient>
</defs>
</svg>
